<?xml version="1.0" encoding="utf-8"?><svg xmlns="http://www.w3.org/2000/svg" width="32" height="32" viewBox="0 0 100 100"><path d="M50 96C24.6 96 4 75.4 4 50S24.6 4 50 4s46 20.6 46 46-20.6 46-46 46zm0-88C26.8 8 8 26.8 8 50s18.8 42 42 42 42-18.8 42-42S73.2 8 50 8z"/><path d="M47.7 61.2c-.3-2-.2-3.8.2-5.4.4-1.6 1-3.1 1.8-4.5s1.6-2.7 2.6-3.9c1-1.2 1.9-2.4 2.7-3.6.9-1.2 1.6-2.4 2.2-3.6.6-1.2.9-2.6.9-4.1 0-1.1-.2-2.2-.5-3.2s-.8-1.9-1.5-2.7c-.7-.8-1.5-1.4-2.6-1.8-1-.5-2.2-.7-3.6-.7-1.8 0-3.5.4-5.1 1.2-1.6.8-3 1.9-4.2 3.4l-1.9-1.8c1.4-1.6 3-2.9 4.9-4s4.1-1.6 6.6-1.6c1.8 0 3.4.3 4.8.8 1.4.6 2.6 1.3 3.5 2.3 1 1 1.7 2.1 2.2 3.5.5 1.3.8 2.8.8 4.4 0 1.6-.3 3.1-.9 4.5-.6 1.4-1.3 2.7-2.2 3.9-.9 1.2-1.8 2.5-2.8 3.7-1 1.2-1.9 2.5-2.7 3.8-.8 1.3-1.4 2.7-1.9 4.2s-.6 3.2-.3 5h-3zm-1.3 10.5c0-1.1.3-1.9.9-2.4s1.3-.9 2.1-.9 1.5.3 2.2.9c.6.6.9 1.4.9 2.4s-.3 1.8-.9 2.4c-.6.6-1.3.9-2.2.9s-1.5-.3-2.1-.9-.9-1.3-.9-2.4z"/></svg>