<?xml version="1.0" encoding="utf-8"?><svg xmlns="http://www.w3.org/2000/svg" width="32" height="32" viewBox="0 0 100 100"><path d="M90.61 11.5H77.5V5.51c0-1.67-1.33-3.01-3-3.01s-3 1.34-3 3.01v5.99h-18V5.51c0-1.67-1.33-3.01-3-3.01s-3 1.34-3 3.01v5.99h-18V5.51c0-1.67-1.33-3.01-3-3.01s-3 1.34-3 3.01v5.99H10.48c-4.4 0-7.98 3.62-7.98 8.02v71c0 4.4 3.58 7.98 7.98 7.98h80.03c4.4 0 7.98-3.58 7.98-7.98v-71c.01-4.4-3.48-8.02-7.88-8.02zm2.01 79c0 1-.91 2-2.01 2H10.58c-1.1 0-2.08-.84-2.08-1.94V19.52c0-1.1.98-2.02 2.08-2.02H23.5v6.03c0 1.67 1.33 3.01 3 3.01s3-1.34 3-3.01V17.5h18v6.03c0 1.67 1.33 3.01 3 3.01s3-1.34 3-3.01V17.5h18v6.03c0 1.67 1.33 3.01 3 3.01s3-1.34 3-3.01V17.5h13.21c1.1 0 1.79.92 1.79 2.02V90.5h.12zm-69.12-43h12v-9h-12v9zm0 15h12v-9h-12v9zm0 15h12v-9h-12v9zm21 0h12v-9h-12v9zm0-15h12v-9h-12v9zm0-15h12v-9h-12v9zm21 30h12v-9h-12v9zm0-15h12v-9h-12v9zm0-15h12v-9h-12v9z"/></svg>