<?xml version="1.0" encoding="utf-8"?><svg xmlns="http://www.w3.org/2000/svg" width="32" height="32" viewBox="0 0 100 100"><path d="M87.8 39.4l-.6-2.4-3.1 3 .2.8c.7 3 1.1 6.2 1.1 9.3 0 21.9-17.9 39.8-39.8 39.8-22 0-39.8-17.9-39.8-39.8s17.8-39.8 39.8-39.8c11 0 21.7 4.7 29.2 12.8l1 1.1 2.6-2.6-.9-1c-8.3-9-19.9-14.1-31.9-14.1C21.6 6.5 2.1 26 2.1 50s19.5 43.5 43.5 43.5S89.1 74 89.1 50c0-3.6-.5-7.1-1.3-10.6z"/><path d="M97.3 14.5c-.7-.7-2.1-.7-2.8 0L45.2 63.7 23.7 42.3c-.7-.7-2.1-.7-2.8 0-.4.4-.6.9-.6 1.4 0 .5.2 1 .6 1.4l22.8 22.8c.4.4.9.6 1.4.6.7 0 1.2-.3 1.4-.6l50.7-50.6c.4-.4.6-.8.6-1.4.1-.5-.1-1-.5-1.4z"/></svg>