<?xml version="1.0" encoding="utf-8"?><svg xmlns="http://www.w3.org/2000/svg" width="32" height="32" viewBox="0 0 100 100"><path d="M75.81 74.4c-4.69 0-8.5 3.81-8.5 8.5s3.81 8.5 8.5 8.5 8.5-3.81 8.5-8.5-3.81-8.5-8.5-8.5zm0 14.84c-3.47 0-6.3-2.83-6.3-6.3 0-3.48 2.83-6.31 6.3-6.31 3.48 0 6.31 2.83 6.31 6.31 0 3.47-2.83 6.3-6.31 6.3z"/><path d="M50.46 2.04C23.74 2.04 2 23.78 2 50.5s21.74 48.46 48.46 48.46c3.11 0 6.27-.31 9.39-.93.57-.14.92-.66.84-1.33-.13-.51-.59-.86-1.12-.86l-.18.01c-2.84.58-5.85.87-8.94.87-10.83 0-21.33-3.83-29.66-10.79l16.19-8.99.17-.14c.1-.1 2.54-2.57 2.54-5.88 0-2.87.04-5.36.04-5.37v-.49l-.35-.35c-.45-.44-4.4-4.49-5.59-10.17l-.08-.39-.29-.21c-1.99-1.7-2.4-3-2.32-7.33.04-2.86.59-4.65 1.56-5.03l.71-.29V31.01c-.02-.47-.14-4.66 2.89-7.98 2.66-2.85 6.91-4.3 12.64-4.3 5.74 0 9.99 1.45 12.65 4.3 2.95 3.19 2.92 7.21 2.89 8.02V41.3l.73.29c.97.34 1.5 2.08 1.54 5.02.04 4.37-.38 5.67-2.31 7.31l-.31.23-.08.38c-1.25 5.83-5.42 10-5.59 10.18-.21.21-.33.49-.33.78 0 .29.12.56.33.76.46.45 1.15.44 1.55.03.78-.77 4.73-4.91 6.14-10.95 2.45-2.16 2.88-4.22 2.84-8.8-.04-3.54-.76-5.67-2.27-6.68v-8.7c0-.05.45-5.35-3.47-9.57-3.03-3.33-7.82-5.02-14.3-5.02-6.31 0-11.09 1.69-14.22 5.02-3.24 3.52-3.51 7.78-3.47 9.53v8.74c-1.51.98-2.23 3.12-2.27 6.69-.04 4.58.39 6.63 2.84 8.79 1.2 5.17 4.35 9.03 5.8 10.6 0 .26-.01.61-.01 1.04-.01 1.01-.03 2.42-.03 3.94 0 1.95-1.22 3.59-1.81 4.26l-16.65 9.25C9.64 75.69 4.23 63.34 4.23 50.5c0-25.51 20.76-46.27 46.27-46.27S96.77 24.99 96.77 50.5c0 6.49-1.32 12.78-3.95 18.72-.21.57.02 1.15.61 1.44.57.21 1.17-.03 1.42-.59C97.61 63.86 99 57.27 99 50.5 98.92 23.78 77.14 2.04 50.46 2.04z"/><path d="M95.87 82.08c-.9-1.23-9.07-11.99-19.86-11.99-11.31 0-20.96 11.39-21.4 11.92-.18.27-.24.52-.2.75.01.19.08.39.24.62 1.03 1.23 10.33 11.99 21.36 11.99 10.37 0 18.35-9.96 19.88-12 .13-.2.2-.42.2-.64 0-.2-.07-.5-.22-.65zm-2.23.65c-1.88 2.33-9.06 10.46-17.59 10.46-8.94 0-16.93-8.15-19.07-10.53 1.84-2.01 10.04-10.41 19.07-10.41 8.32 0 15.3 7.65 17.59 10.48z"/></svg>