<?xml version="1.0" encoding="utf-8"?><svg xmlns="http://www.w3.org/2000/svg" width="32" height="32" viewBox="0 0 100 100"><path d="M51 98C24.53 98 3 76.47 3 50S24.53 2 51 2s48 21.53 48 48-21.53 48-48 48zm0-93.4C25.97 4.6 5.6 24.97 5.6 50c0 25.03 20.37 45.4 45.4 45.4 25.03 0 45.4-20.37 45.4-45.4C96.4 24.97 76.03 4.6 51 4.6z"/><path d="M57.6 50.6l3.55-13.58-.72-.36c-.79-.41-1.76-.72-3.05-.96-1.06-.2-2.2-.31-3.37-.31-1.92 0-3.76.27-5.46.79-1.63.49-3.15 1.19-4.65 2.14-1.39.9-2.66 1.98-3.76 3.21a21.958 21.958 0 0 0-2.75 3.94c-.73 1.35-1.29 2.79-1.71 4.43-.38 1.52-.58 3.06-.58 4.58 0 1.39.17 2.66.5 3.75.31 1.17.83 2.22 1.61 3.21.76.92 1.69 1.65 2.76 2.17 1.1.53 2.42.8 3.91.8 2.49 0 4.79-.74 6.85-2.2 1.17-.82 2.25-1.94 3.22-3.33.24 1.45.77 2.66 1.6 3.63 1.21 1.42 3.13 2.15 5.7 2.15 2 0 3.89-.49 5.58-1.45 1.74-.92 3.28-2.25 4.57-3.95 1.28-1.68 2.28-3.66 3.05-6.05.75-2.33 1.11-4.91 1.11-7.88 0-2.79-.33-5.39-.99-7.73-.67-2.35-1.6-4.49-2.76-6.35a20.903 20.903 0 0 0-4.26-4.95c-1.75-1.46-3.52-2.59-5.38-3.46-1.91-.92-3.99-1.62-6.19-2.07a32.6 32.6 0 0 0-6.55-.68c-3.97 0-7.73.75-11.18 2.24-3.48 1.5-6.56 3.61-9.13 6.29-2.59 2.66-4.69 5.91-6.23 9.66-1.5 3.69-2.27 7.82-2.27 12.28 0 4.85.78 9.21 2.33 12.95 1.53 3.69 3.69 6.89 6.43 9.51 2.74 2.56 5.95 4.52 9.53 5.82 3.62 1.31 7.51 1.97 11.58 1.97s7.88-.51 11.32-1.52c3.53-1.03 6.8-2.55 9.73-4.53l.78-.52-.63-1.09c-.2-.52-.72-.86-1.3-.86-.39 0-.73.11-.95.31-2.77 1.84-5.74 3.21-8.84 4.06-3.14.9-6.54 1.34-10.08 1.34-3.65 0-7.16-.59-10.44-1.76-3.26-1.16-6.15-2.92-8.57-5.22-2.45-2.31-4.41-5.19-5.83-8.56-1.44-3.41-2.17-7.4-2.17-11.87 0-2.74.33-5.36.97-7.8.69-2.51 1.61-4.77 2.73-6.73 1.2-2.09 2.56-3.9 4.15-5.52 1.65-1.68 3.38-3.05 5.29-4.17 1.91-1.14 3.91-1.99 6.1-2.61 2.24-.6 4.41-.89 6.65-.89 3.06 0 6.07.46 8.94 1.37 2.8.9 5.23 2.26 7.42 4.14 2.15 1.88 3.88 4.23 5.12 7 1.26 2.81 1.91 6.18 1.91 10 0 2.61-.33 4.98-1 7.04-.68 2.15-1.53 3.85-2.59 5.22-1.03 1.37-2.25 2.44-3.64 3.19-1.93 1.04-4.16 1.35-6.1.87-.55-.14-1.04-.39-1.4-.71-.43-.38-.76-.88-1.01-1.5-.26-.63-.39-1.57-.39-2.71 0-.78.07-1.66.23-2.7.11-.96.34-2.06.71-3.48zm-3.57-12.4c.94 0 1.78.06 2.56.19.34.06.73.13 1.19.24l-2.95 11.34c-.64 2.4-1.4 4.4-2.24 5.93-.84 1.5-1.75 2.7-2.72 3.57-.92.85-1.86 1.41-2.85 1.72-2.17.67-4.16.64-5.59-.08-.71-.36-1.33-.86-1.83-1.48-.51-.65-.89-1.42-1.14-2.28-.26-.88-.39-1.82-.39-2.87 0-1.26.16-2.55.48-3.83.33-1.29.81-2.56 1.44-3.75.73-1.33 1.5-2.45 2.36-3.43.86-1 1.9-1.89 3.16-2.74 1.13-.76 2.41-1.37 3.9-1.85 1.44-.46 2.94-.68 4.62-.68z"/></svg>