<?xml version="1.0" encoding="utf-8"?><svg xmlns="http://www.w3.org/2000/svg" width="32" height="32" viewBox="0 0 100 100"><path d="M53.11 2.5H11.36c-2.84 0-5.19 2.35-5.19 5.19v81.47c0 2.84 2.35 5.19 5.19 5.19h41.98c.36 0 .68-.31.68-.68 0-.36-.32-.68-.68-.68H11.36c-2.12 0-3.84-1.71-3.84-3.83V7.69c0-2.12 1.71-3.83 3.84-3.83H52.3V21.5c0 1.94 1.58 3.52 3.52 3.52h17.65v29.47c0 .36.32.68.68.68.36 0 .68-.31.68-.68V24.12L53.11 2.5zm.54 19V4.94l18.73 18.69H55.77c-1.17.04-2.12-.96-2.12-2.13z"/><path d="M36.27 35H18.31c-.36 0-.68-.6-.68-1s.32-1 .68-1h17.96c.36 0 .68.6.68 1s-.27 1-.68 1zm26.18 11H18.31c-.36 0-.68.53-.68-1 0-1.51.32-1 .68-1h44.14c.36 0 .68-.52.68 1 0 1.53-.27 1-.68 1zm-1.81 12H18.31c-.36 0-.68-.6-.68-1s.32-1 .68-1h42.34c.36 0 .68.6.68 1-.01.4-.28 1-.69 1zM49.36 68.4H18.31c-.36 0-.68-.47-.68-1 0-.54.32-1 .68-1h31.05c.36 0 .68.46.68 1 0 .53-.27 1-.68 1zm-6.32 9.93H18.31c-.36 0-.68-.47-.68-1s.32-1 .68-1h24.73c.36 0 .68.46.68 1 0 .53-.27 1-.68 1zm29.29 9.25c-.18 0-.36-.04-.5-.18l-9.8-9.84a.658.658 0 0 1 0-.95c.27-.27.68-.27.95 0l9.34 9.34 21.35-21.31c.27-.27.68-.27.95 0 .27.27.27.68 0 .95L72.78 87.4c-.08.13-.26.18-.45.18z"/><path d="M72.56 98.5c-10.83 0-19.63-8.8-19.63-19.63 0-10.83 8.8-19.63 19.63-19.63 5.05 0 9.84 1.9 13.5 5.37.27.27.27.68.04.95-.27.27-.68.27-.95.04-3.43-3.25-7.85-5.01-12.59-5.01-10.06 0-18.28 8.22-18.28 18.28s8.21 18.28 18.28 18.28 18.28-8.21 18.28-18.28c0-.95-.09-1.89-.23-2.84-.04-.36.18-.72.59-.77.36-.05.72.18.77.59.14.99.23 2.03.23 3.02-.01 10.83-8.85 19.63-19.64 19.63z"/></svg>