<?xml version="1.0" encoding="utf-8"?><svg xmlns="http://www.w3.org/2000/svg" width="32" height="32" viewBox="0 0 100 100"><path d="M50.5 2.5c-26.47 0-48 21.53-48 48s21.53 48 48 48 48-21.53 48-48-21.53-48-48-48zm24.75 26.49c-.18-.24-.4-.4-.56-.4-.06 0-.12-.08-.26-.08H17.38c-.06 0-.14.11-.22.1-.13-.01-.44.04-.57.04-.85 0-1.1.6-1.1.76v49.35c-7-8.05-10.73-17.1-10.73-28.37C4.77 25.36 25.3 5 50.41 5c24.93 0 45.25 20.34 45.25 45.34 0 11.46-3.35 20.52-10.58 28.41l.04-35.64-9.87-14.12zM29.5 56.5v-25h40v25h-40zm-11-25h8v26.52c0 .65 1.27 1.48 1.81 1.48h43c.62 0 1.19-.81 1.19-1.48V31.5h1.22l8.78 12.65V82.7c-10 8.44-20.71 12.9-32.34 12.9-12.06 0-23.66-4.67-31.66-13.16V31.5z"/><path d="M71.43 70.5H27.45c-.54 0-1.12.47-1.12 1.5s.58 1.5 1.12 1.5h43.98c.54 0 1.12-.47 1.12-1.5s-.58-1.5-1.12-1.5zm0 13H27.45c-.54 0-1.12.47-1.12 1.5s.58 1.5 1.12 1.5h43.98c.54 0 1.12-.47 1.12-1.5s-.58-1.5-1.12-1.5z"/></svg>