<?xml version="1.0" encoding="utf-8"?><svg xmlns="http://www.w3.org/2000/svg" width="32" height="32" viewBox="0 0 100 100"><path d="M7.34 80.6c1.83 2.52 4.82 4.4 8.15 4.4h72.04s9.48.26 9.48-10.53V26.52C97 15.86 87.52 17 87.52 17H15.48C5.16 17 5 26.52 5 26.52v48.06c0 2.07.82 4.04 1.97 5.64l.37.38zM15.48 21h72.04c1.15 0 1.61-.05 2.29.75L51.5 59.93l-38.31-38.1c.69-.7 1.37-.83 2.29-.83zm52.31 30.99l-2.87 2.75 24.89 25.17c-.57.92-1.49 1.09-2.41 1.09H15.6c-.69 0-1.61-.17-2.29-1.08L38.08 55l-2.75-2.82L10 77.03c-.46-.69-1-1.18-1-2.45V26.52c0-1.49.43-1.72 1-2.41l41.4 41.3 40.93-41.18c.58.57.67 1.38.67 2.29v48.06c0 .92.19 1.61-.39 2.52L67.79 51.99z"/></svg>