<?xml version="1.0" encoding="utf-8"?><svg xmlns="http://www.w3.org/2000/svg" width="32" height="32" viewBox="0 0 100 100"><path d="M88.3 94.9H12.9c-3.3 0-6.3-1.8-8-4.6-1.7-2.8-1.7-6.4-.1-9.2L42.5 12c1.6-3 4.7-4.9 8.1-4.9 3.4 0 6.5 1.9 8.1 4.9l37.7 69.1c1.6 2.8 1.5 6.3-.1 9.2-1.7 2.9-4.7 4.6-8 4.6zM50.6 13.2c-1.2 0-2.3.7-2.9 1.7L10 84.1c-.6 1-.5 2.2 0 3.2.6 1 1.7 1.6 2.8 1.6h75.4c1.1 0 2.2-.6 2.8-1.6.6-1 .6-2.2.1-3.2L53.5 14.9c-.6-1.1-1.7-1.7-2.9-1.7z"/><path d="M54.6 44.8c0-.2-.1-.5-.3-.7-.2-.2-.4-.4-.7-.4h-6.1c-.2 0-.5.2-.7.4-.2.2-.3.6-.3.8l.5 16.8c0 .5.4.8.9.8H53c.5 0 .9-.4.9-.8l.7-16.9zm-.5 23.7c0-.7-.4-1.2-.9-1.2h-5.3c-.5 0-.9.6-.9 1.2v7c0 .7.4 1.2.9 1.2h5.3c.5 0 .9-.6.9-1.2v-7z"/></svg>