<?xml version="1.0" encoding="utf-8"?><svg xmlns="http://www.w3.org/2000/svg" width="32" height="32" viewBox="0 0 100 100"><path d="M50.5 96.5c-25.36 0-46-20.63-46-46s20.64-46 46-46c25.359 0 46 20.63 46 46s-20.641 46-46 46zm0-86.44c-22.3 0-40.43 18.14-40.43 40.44S28.2 90.939 50.5 90.939 90.93 72.8 90.93 50.5 72.8 10.06 50.5 10.06z"/><path d="M29.924 53.291c-.523-.522-.855-2.251-.849-3.05 0-1.599 1.302-3.9 2.907-3.907H69.02c1.598 0 2.898 2.301 2.906 3.907-.001 1.597-1.302 3.898-2.906 3.907H31.981a2.901 2.901 0 0 1-2.057-.857z"/></svg>