<?xml version="1.0" encoding="utf-8"?><svg xmlns="http://www.w3.org/2000/svg" width="32" height="32" viewBox="0 0 100 100"><path d="M50 96C24.6 96 4 75.4 4 50S24.6 4 50 4s46 20.6 46 46-20.6 46-46 46zm0-86.4C27.7 9.6 9.6 27.7 9.6 50S27.7 90.4 50 90.4 90.4 72.3 90.4 50 72.3 9.6 50 9.6z"/><path d="M44 45l10.5-.4L49.8 62c-.2.8-.3 1.3-.3 1.7 0 .3.1.5.2.6.1.1.3.2.5.2.4 0 1-.3 1.7-1 1.1-1.1 2.2-2.7 3.3-4.7l1.7 1c-2.9 5.3-6 7.9-9.4 7.9-1.2 0-2.1-.4-2.7-1.1-.7-.7-1-1.7-1-2.9 0-.8.1-1.6.3-2.4l3.2-12.1c.1-.2.1-.4.1-.7 0-.4-.2-.8-.5-1s-1-.4-1.9-.4h-1.5L44 45zm8.4-12.7c1.1 0 2 .4 2.7 1.1.8.8 1.1 1.7 1.1 2.7s-.4 2-1.1 2.7c-.8.8-1.7 1.1-2.7 1.1s-2-.4-2.7-1.1c-.8-.8-1.1-1.7-1.1-2.7s.4-2 1.1-2.7c.7-.7 1.7-1.1 2.7-1.1z"/></svg>