<?xml version="1.0" encoding="utf-8"?><svg xmlns="http://www.w3.org/2000/svg" width="32" height="32" viewBox="0 0 100 100"><path d="M17.17 78.99l-.38.21c-.41.41-.79.82-.79 1.44v.07c0 .48.38.89.65 1.3 8.51 9.13 20.82 14.49 33.52 14.49 8.92 0 17.62-2.54 25.17-7.48 10.3-6.73 17.39-16.96 20.07-29.04.69-3.3 1.04-6.66 1.04-9.89.07-8.79-2.47-17.3-7.27-24.72C80.81 12.26 66.39 4.5 50.74 4.5c-8.92 0-17.57 2.54-25.13 7.48C12.15 20.84 4.53 35.53 4.53 50.77c0 5.9 1.1 12.08 3.57 17.78.27.69 1.03 1.24 1.85 1.24.27 0 .48-.07.82-.21.69-.27 1.24-1.1 1.24-1.86 0-.21 0-.48-.07-.69-2.27-5.29-3.3-10.85-3.3-16.27 0-13.87 6.93-27.39 19.29-35.5 6.87-4.4 14.69-6.87 22.93-6.87 14.28 0 27.4 7.14 35.15 19.02 4.53 6.94 6.66 14.83 6.66 22.59 0 13.8-6.86 27.7-19.22 35.8C66.6 90.22 58.77 93 50.67 93h-.21c-10.92 0-21.49-4.7-29.25-12.39l-1.24-1.46c-1.5-1.31-2.8-.16-2.8-.16z"/><path d="M76.49 33.2c.07-1.92-.62-3.64-1.92-4.94l-5.36-5.35a6.62 6.62 0 0 0-4.94-1.92c-1.85.07-3.64.82-4.94 2.13L22.38 60.04l-.07.07-.07.07c-.21.21-.34.48-.41.75l-3.5 16.2c-.14.55.07 1.17.48 1.58.34.34.76.48 1.24.48.14 0 .27 0 .34-.07l16.14-3.5c.34-.07.62-.21.82-.41l.07-.07 36.94-37c1.3-1.37 2.06-3.09 2.13-4.94zM56.3 30.86L66.53 41.1 37.28 70.34 27.05 60.11 56.3 30.86zM22.25 75.22l2.68-12.36 9.68 9.68-12.36 2.68zm49.71-39.48L69 38.69 58.77 28.46l2.95-2.95c.69-.69 1.65-1.1 2.61-1.17.96 0 1.79.34 2.47.96l5.36 5.35c.62.62.96 1.51.96 2.47-.07.97-.48 1.86-1.16 2.62z"/></svg>