<?xml version="1.0" encoding="utf-8"?><svg xmlns="http://www.w3.org/2000/svg" width="32" height="32" viewBox="0 0 100 100"><path d="M51.37 3.95C25.54 3.95 4.5 24.99 4.5 50.82s21.04 46.87 46.87 46.87c.31 0 .58-.27.58-.58 0-.31-.27-.58-.58-.58-11.4 0-21.82-4.2-29.83-11.13l16.38-9.1.08-.04.04-.04c.08-.08 2.13-2.37 2.13-5.41 0-2.8-.16-5.25-.16-5.25v-.27l.01-.19c-.04-.04-4.26-4.24-5.5-10.19l.01-.19-.13-.12c-2.06-1.75-2.52-3.15-2.44-7.55.04-3.11.58-4.9 1.74-5.37l.3-.16v-9.69c0-.04-.22-4.59 3.05-8.17 2.69-2.88 7.01-3.36 12.77-3.36s9.79.48 12.48 3.36c3.27 3.54 2.71 8.09 2.71 8.17v9.69l.66.16c1.17.43 1.92 2.26 1.96 5.37.04 4.39-.32 5.8-2.38 7.55l-.12.12-.02.2c-1.29 5.95-5.55 10.15-5.59 10.19-.23.23-.23.58 0 .82.12.12.27.19.43.19.16 0 .27-.04.39-.16.2-.19 4.51-4.4 5.91-10.62 2.26-1.94 2.39-3.65 2.35-8.32-.05-3.47-.6-5.46-2.6-6.27v-8.83c0-.43.68-4.77-2.87-8.58C60.26 20.19 56 19 50 19h-.15c-6.07 0-10.64 1.23-13.56 4.34-3.54 3.85-3.29 8.15-3.29 8.58v8.83c-2 .78-2.15 2.8-2.19 6.26-.04 4.67.48 6.38 2.73 8.32 1.24 5.56 4.87 9.53 5.72 10.43 0 .7-.03 2.76-.03 5.06 0 2.33-1.63 4.2-1.94 4.55l-16.65 9.26C11.46 76.26 5.71 64.2 5.71 50.86c0-25.21 20.5-45.71 45.71-45.71s45.71 20.5 45.71 45.71c0 .31.27.58.58.58s.58-.27.58-.58C98.24 24.99 77.2 3.95 51.37 3.95z"/><path d="M51.37 98.19C25.25 98.19 4 76.94 4 50.82 4 24.7 25.25 3.45 51.37 3.45c26.1 0 47.37 21.27 47.42 47.41 0 .59-.49 1.08-1.08 1.08s-1.08-.49-1.08-1.08c0-24.93-20.28-45.21-45.21-45.21S6.21 25.93 6.21 50.86c0 12.55 5.28 24.62 14.5 33.16l16.26-9.04c.57-.66 1.76-2.26 1.76-4.16 0-1.48.01-2.87.02-3.85 0-.42.01-.76.01-1.01-1.42-1.54-4.5-5.32-5.67-10.36-2.25-1.98-2.82-3.79-2.78-8.59.03-2.96.06-5.53 2.19-6.58v-8.5c-.04-1.95.36-5.59 3.42-8.92 2.88-3.07 7.31-4.5 13.93-4.5H50c6.5 0 10.66 1.39 13.5 4.5 1.55 1.66 3.33 4.53 3.01 8.77l-.01.15v8.51c2.08 1.04 2.55 3.39 2.6 6.59.04 4.54-.04 6.51-2.4 8.6-1.49 6.34-5.83 10.54-6.02 10.71-.39.39-1.07.4-1.52-.04-.43-.45-.43-1.1 0-1.53.05-.05 4.2-4.15 5.46-9.94l.03-.32.25-.25c1.9-1.62 2.27-2.82 2.23-7.19-.04-2.71-.65-4.54-1.63-4.9l-.99-.24v-10.1c.07-.83.26-4.76-2.58-7.83-2.5-2.68-6.33-3.2-12.11-3.2-5.81 0-9.92.54-12.4 3.2-2.98 3.26-2.93 7.35-2.92 7.8v10.01l-.56.3c-.96.39-1.44 2.04-1.48 4.94-.08 4.24.32 5.52 2.26 7.16l.32.29-.02.36c1.22 5.74 5.31 9.83 5.35 9.87l.16.16-.02.42v.25s.16 2.47.16 5.25c0 3.28-2.25 5.74-2.28 5.76l-.17.13-15.81 8.78a45.117 45.117 0 0 0 28.96 10.54c.59 0 1.08.49 1.08 1.08s-.49 1.09-1.08 1.09zm0-93.74C25.8 4.45 5 25.25 5 50.82s20.8 46.37 46.37 46.37c.03 0 .08-.05.08-.08s-.05-.08-.08-.08c-11.06 0-21.77-4-30.16-11.25l-.54-.47 17.02-9.46c.2-.22 1-1.2 1.52-2.6a9.282 9.282 0 0 1-1.55 2.45l-.13.11-16.96 9.43-.27-.24C10.71 76.25 5.21 63.81 5.21 50.86c0-25.48 20.73-46.21 46.21-46.21s46.21 20.73 46.21 46.21c0 .07.16.07.16 0-.05-25.59-20.87-46.41-46.42-46.41zm14.24 50.5v.02c-1.33 6.16-5.7 10.46-5.74 10.5 0 0-.05.05.02.11l.1.03c.06-.06 4.4-4.25 5.78-10.39l.04-.16.13-.11c1.69-1.45 2.09-2.78 2.17-5.52-.17 2.66-.75 4.02-2.5 5.52zM33.5 41.09l-.32.12c-1.64.64-1.83 2.26-1.87 5.8-.04 4.57.46 6.13 2.56 7.94l.13.11.04.16c.89 4.01 3.08 7.21 4.59 9.05-1.37-1.68-3.71-5.03-4.59-9.26l-.01-.06v-.02c-2.13-1.83-2.64-3.39-2.56-7.89.04-3.41.69-5.26 2.04-5.82v-.13zm32.79.36c.89.6 1.48 1.88 1.72 3.72-.21-2-.73-3.12-1.72-3.72zM33.5 31.8v8.95V31.8zm.27-2.64c-.22.99-.27 1.85-.27 2.52 0-.42.03-1.34.27-2.52zm31.16-1.96c.53 1.6.62 3.05.61 3.93.04-1.51-.21-2.82-.61-3.93zm-15.11-7.4c3.2 0 5.84.16 8.02.75-2.11-.71-4.68-1.05-7.84-1.05h-.11c-2.95 0-5.44.29-7.52.88 2.1-.45 4.58-.58 7.45-.58z"/><path d="M67.35 93.34l26.93-27.91c.85-1.01 1.31-2.27 1.31-3.47 0-1.24-.49-2.37-1.35-3.19l-4.1-3.97c-.86-.82-2.03-1.24-3.24-1.21-1.21.04-2.38.58-3.23 1.48L56.63 82.89c-.08.08-.16.2-.16.31l-2.61 12.37c-.04.19.04.75.16.91.12.12.28.52.39.52H55l12.35-3.66zm13.63-33.91l8.83 8.6-22.72 23.38-8.83-8.63 22.72-23.35zm-25.79 36.4l2.33-12.13 8.67 8.44-11 3.69zm35.44-28.66l-8.83-8.6 2.68-2.76c.66-.66 1.52-1.09 2.45-1.09.89-.04 1.75.27 2.37.89l4.08 3.97c.62.62.97 1.44.93 2.37 0 .94-.39 1.79-1.05 2.49l-2.63 2.73z"/></svg>