<?xml version="1.0" encoding="utf-8"?><svg xmlns="http://www.w3.org/2000/svg" width="32" height="32" viewBox="0 0 100 100"><path d="M97.37 17.94L83.04 3.61c-1.48-1.48-3.79-1.48-5.27 0l-8.15 8.16-3.21 3.21-2.72 2.72-3.21 3.21L7.26 74.12 2.57 98.5l24.38-4.69 53.21-53.13 3.21-3.21 2.72-2.72 3.21-3.21 8.15-8.15c1.24-1.49 1.41-3.96-.08-5.45zM8.75 90.26L10.8 79.8l10.46 10.46-10.46 2.06-2.05-2.06zm3.62-14.99L63.44 24.2l5.02 5.02L17.39 80.3l-5.02-5.03zm13.26 13.26l-5.02-5.02 51.07-51.07 5.02 5.02-51.07 51.07zm54.28-54.28L66.65 20.99l2.72-2.72 13.26 13.26-2.72 2.72zm-7.33-19.19l7.66-7.66L93.5 20.66l-7.66 7.66-13.26-13.26z"/></svg>