<?xml version="1.0" encoding="utf-8"?><svg xmlns="http://www.w3.org/2000/svg" width="32" height="32" viewBox="0 0 100 100"><path d="M74.09 99H13.23C10.26 99 8 96.05 8 93.08V7.92C8 4.95 10.26 3 13.23 3h43.35c.19 0 .66.02.8.11l22.18 21.87c.14.14.43.46.43.65v23.19c0 .38-.62.71-1 .71s-1-.33-1-.71V25.71L56.3 5H13.23C11.01 5 10 5.75 10 7.97v85.15c0 2.22 1.01 3.88 3.23 3.88h60.86C76.3 97 78 95.34 78 93.12v-6.89c0-.38.62-.71 1-.71s1 .33 1 .71v6.89C80 96.1 77.06 99 74.09 99z"/><path d="M78.9 26.04H59.65c-2.03 0-3.68-1.65-3.68-3.68V3.11h1.42v19.25c0 1.23.99 2.26 2.26 2.26H78.9v1.42zM39.27 37H20.5c-.38 0-.71-.24-.71-1 0-.75.33-1 .71-1h18.78c.38 0 .71.25.71 1-.01.75-.3 1-.72 1zm27.36 12H20.5c-.38 0-.71-.24-.71-1 0-.75.33-1 .71-1h46.14c.38 0 .71.25.71 1-.01.76-.29 1-.72 1zm0 12H20.5c-.38 0-.71-.24-.71-1 0-.75.33-1 .71-1h46.14c.38 0 .71.25.71 1-.01.76-.29 1-.72 1zM53.89 72H20.5c-.38 0-.71-.24-.71-1 0-.75.33-1 .71-1h33.4c.38 0 .71.25.71 1-.01.76-.29 1-.72 1zm-7.54 10H20.5c-.38 0-.71-.62-.71-1s.33-1 .71-1h25.85c.38 0 .71.62.71 1s-.29 1-.71 1zM92.2 61.66c.66-.76 1.04-1.74.99-2.74-.05-.99-.47-1.93-1.18-2.59l-3.26-2.88c-.75-.66-1.7-.95-2.69-.85-.99.1-1.93.56-2.59 1.32L63.75 76.28l.05.05c0 .05-.05.09-.05.14L62.2 86c-.05.23.05.55.23.74.09.09.24.26.38.26h.28l9.25-2.81c.05 0 .09-.08.14-.08l.05.03.19-.2L92.2 61.66zm-7.69-6.79c.43-.47 1.04-.8 1.65-.85.61-.05 1.18.14 1.65.52l3.25 2.88c.42.38.71.95.71 1.56 0 .61-.19 1.27-.61 1.74l-1.79 2.03-6.65-5.85 1.79-2.03zm-2.74 3.06l6.65 5.85-16.08 18.21-6.65-5.85 16.08-18.21zM63.75 85.05l1.23-7.69 6.23 5.47-7.46 2.22z"/></svg>