<?xml version="1.0" encoding="utf-8"?><svg xmlns="http://www.w3.org/2000/svg" width="32" height="32" viewBox="0 0 100 100"><path d="M50 3.5C24.36 3.5 3.5 24.36 3.5 50S24.36 96.5 50 96.5 96.5 75.64 96.5 50 75.64 3.5 50 3.5zm0 90.85C25.55 94.35 5.65 74.45 5.65 50 5.65 25.55 25.55 5.65 50 5.65c24.45 0 44.35 19.9 44.35 44.35 0 24.45-19.9 44.35-44.35 44.35z"/><path d="M68.15 68.48c-.6-.5-1.29-.58-2.2.33-.18.18-.39.37-.63.58-.21.19-.45.4-.68.62-.65.57-1.28 1.07-1.98 1.57-.76.53-1.69 1.05-2.75 1.52-1.15.51-2.41.91-3.76 1.19-1.4.33-2.98.49-4.82.49-2.77 0-5.33-.44-7.61-1.3-2.27-.86-4.26-2.14-5.93-3.81s-3.05-3.77-4.09-6.26c-.89-2.14-1.58-4.93-1.96-7.92h21.47c.78 0 1.29-.51 1.29-1.3v-.7H31.53c-.05-.89-.08-1.86-.08-2.78 0-.71 0-1.47.04-2.12l.01-.22c.01-.24.03-.61.05-.88h25.36c.54 0 1-.37 1.13-.49l.08-.1c.05-.07.16-.25.25-.44l.13-.01V46l.07-.51H31.79c.28-2.01.92-5.85 2.04-8.4 1.01-2.23 2.34-4.1 4.17-5.9 1.71-1.64 3.66-2.85 5.94-3.71 2.23-.84 4.77-1.27 7.57-1.27 1.64 0 3.17.14 4.55.41 1.33.29 2.53.63 3.56 1.01.92.34 1.81.77 2.58 1.26.76.46 1.37.93 1.8 1.25.35.3.65.56.9.79l.27.24c.44.39.77.62 1.17.62.35 0 .64-.12.93-.41l.6-.73-.48-.48c-1.09-1.02-2.17-1.9-3.32-2.69a21.33 21.33 0 0 0-3.6-1.92c-1.36-.54-2.74-.92-4.1-1.15-1.4-.27-3.02-.41-4.77-.41-3.26 0-6.15.48-8.58 1.41-2.71 1.04-4.91 2.42-6.74 4.21-2 1.97-3.52 4.16-4.65 6.71-1.23 2.75-1.91 6.76-2.23 9.16h-7.9v2h7.63c-.01.13-.01.26-.02.42-.01.25-.02.51-.03.7-.04.65-.04 1.32-.04 2.02 0 1.05.03 2.04.07 2.86H21.5v2h7.79c.41 3.29 1.19 6.47 2.17 8.78 1.17 2.73 2.73 5.07 4.62 6.96 1.92 1.89 4.19 3.34 6.74 4.31 2.65.96 5.52 1.44 8.53 1.44 2.02 0 3.83-.21 5.36-.61 1.63-.34 3.17-.84 4.58-1.49 1.46-.67 2.72-1.41 3.84-2.27 1.21-.96 2.27-1.91 3.21-2.9l.56-.56-.75-.67z"/></svg>