<?xml version="1.0" encoding="utf-8"?><svg xmlns="http://www.w3.org/2000/svg" width="32" height="32" viewBox="0 0 100 100"><path d="M74.5 87.86c-.57 0-1 .47-1 1.1v2c0 1.62-1.4 3.04-2.99 3.04h-51.6c-1.54 0-3.41-1.4-3.41-3.04v-72.2c0-1.69 1.88-3.76 3.41-3.76h2.59v-2h-2.59c-2.73 0-5.41 2.85-5.41 5.76v72.2c0 2.68 2.53 5.04 5.41 5.04h51.6c2.8 0 4.99-2.21 4.99-5.04v-2c0-.63-.43-1.1-1-1.1z"/><path d="M66.91 4h-37.2c-2.92 0-5.21 2.13-5.21 4.84v72.2c0 2.74 2.34 4.96 5.21 4.96h51.6c2.87 0 5.2-2.22 5.2-4.96V23.19L66.91 4zm2.12 19c-.69 0-1.53-1.08-1.53-1.96V7.53L83.51 23H69.03zM26.5 8.84C26.5 7.17 28.19 6 29.71 6H65.5v15.08c0 2.09 1.69 3.92 3.61 3.92H84.5v56.04c0 1.52-1.55 2.96-3.19 2.96h-51.6c-1.68 0-3.21-1.41-3.21-2.96V8.84z"/><path d="M70.9 53.77L59.99 42.85c1.72-2.08 2.66-4.68 2.66-7.37 0-6.43-5.23-11.66-11.66-11.66s-11.66 5.23-11.66 11.66 5.21 11.66 11.62 11.66c2.76 0 5.39-.95 7.46-2.69l10.91 10.91c.2.2.47.31.79.31s.59-.11.79-.31c.21-.21.33-.49.33-.79 0-.31-.12-.59-.33-.8zM50.95 26.02c5.22 0 9.46 4.24 9.46 9.46s-4.24 9.46-9.46 9.46c-5.22 0-9.46-4.24-9.46-9.46s4.24-9.46 9.46-9.46zM74.67 62H35.86c-.58 0-1.09.56-1.09 1 0 .45.5 1 1.09 1h38.81c.59 0 1.1-.55 1.1-1s-.51-1-1.1-1zm0 10H35.86c-.59 0-1.09.46-1.09 1 0 .55.49 1 1.09 1h38.81c.6 0 1.1-.46 1.1-1s-.5-1-1.1-1z"/></svg>