<?xml version="1.0" encoding="utf-8"?><svg xmlns="http://www.w3.org/2000/svg" width="32" height="32" viewBox="0 0 100 100"><path d="M94.72 32.37c-.12-.13-.35-.37-.69-.37H85v-6.5c0-.26-.26-1.5-1-1.5H58.61l-17-8H6.96c-.52 0-.96.45-.96.98v66.99l-.08.05.07.27v.06l.08.38.36.14c.08.08.19.13.36.13l.2.08L7 85h77.31c.43 0 .82-.31.95-.79l9.71-50.91c.08-.24.02-.66-.25-.93zM83 32H15.95c-.49 0-.85.46-.91.88L8 73.05V18h33.39l16.9 7.95.1.05H83v6zM8.11 83l8.62-49h76.14l-9.34 49H8.11z"/><path d="M64.66 73.4L53.64 62.38c1.74-2.08 2.7-4.69 2.7-7.4 0-6.36-5.18-11.54-11.54-11.54-6.36 0-11.54 5.18-11.54 11.54 0 6.36 5.18 11.54 11.54 11.54 2.75 0 5.39-.97 7.49-2.75l11.02 11.02c.12.12.34.27.69.27.26 0 .49-.08.67-.25l.09-.1c.25-.4.22-.94-.1-1.31zM44.8 64.6c-5.3 0-9.62-4.32-9.62-9.62 0-5.31 4.32-9.62 9.62-9.62 5.3 0 9.62 4.32 9.62 9.62 0 5.3-4.32 9.62-9.62 9.62z"/></svg>