<?xml version="1.0" encoding="utf-8"?><svg xmlns="http://www.w3.org/2000/svg" width="32" height="32" viewBox="0 0 100 100"><path d="M50 92.09c-23.18 0-42-18.83-42-42s18.82-42 42-42c23.17 0 42 18.83 42 42s-18.83 42-42 42zm-.24-80.76c-21.5 0-39 17.5-39 39s17.5 39 39 39 39-17.5 39-39-17.5-39-39-39z"/><path d="M32.76 62.11a1.49 1.49 0 0 1 0-2.12l15.91-15.91a1.49 1.49 0 0 1 2.12 0c.58.59.59 1.54 0 2.12L34.88 62.11c-.58.58-1.53.58-2.12 0z"/><path d="M50.03 44.08a1.49 1.49 0 0 1 2.12 0l15.91 15.91c.59.59.59 1.54 0 2.12-.59.59-1.54.59-2.12 0L50.03 46.2a1.49 1.49 0 0 1 0-2.12z"/></svg>