<?xml version="1.0" encoding="utf-8"?><svg xmlns="http://www.w3.org/2000/svg" width="32" height="32" viewBox="0 0 100 100"><path d="M31.2 67.9h-9.7c-.6 0-1.1.4-1.1.9v9.6c0 .5.5.9 1.1.9h9.7c.6 0 1.1-.4 1.1-.9v-9.6c0-.5-.5-.9-1.1-.9zm-8.6 9.6v-7.9h7.5v7.9h-7.5zm8.6-25.3h-9.7c-.6 0-1.1.4-1.1.9v9.6c0 .5.5.9 1.1.9h9.7c.6 0 1.1-.4 1.1-.9v-9.6c0-.5-.5-.9-1.1-.9zm-8.6 9.6v-7.9h7.5v7.9h-7.5zm27.9-41h-9.7c-.6 0-1.1.4-1.1.9v9.6c0 .5.5.9 1.1.9h9.7c.6 0 1.1-.4 1.1-.9v-9.6c0-.5-.5-.9-1.1-.9zm-8.6 9.6v-7.9h7.5v7.9h-7.5zm-10.7-9.6h-9.7c-.6 0-1.1.4-1.1.9v9.6c0 .5.5.9 1.1.9h9.7c.6 0 1.1-.4 1.1-.9v-9.6c0-.5-.5-.9-1.1-.9zm-8.6 9.6v-7.9h7.5v7.9h-7.5zm8.6 6.1h-9.7c-.6 0-1.1.4-1.1.9V47c0 .5.5.9 1.1.9h9.7c.6 0 1.1-.4 1.1-.9v-9.6c0-.5-.5-.9-1.1-.9zm-8.6 9.6v-7.9h7.5v7.9h-7.5z"/><path d="M97.7 86.5c-.2-.2-.5-.3-.8-.3h-7.7V48.5c0-.4-.3-.6-.5-.7L63.2 31.2c-.2-.1-.5-.2-.8-.2-.2 0-.5 0-.8.2l-1.4.8V12.7c0-.1.1-.3-.1-.5s-.4-.2-.5-.2H12.3c-.4 0-1.5.1-1.5.8v73.4H3.1c-.6 0-1.1.4-1.1.9s.5.9 1.1.9H97c.6 0 1-.4 1.1-.9-.1-.2-.2-.4-.4-.6zM69.9 60v26.2h-15V60h15zm1-1.7H53.8c-.8 0-1.1 1-1.1 1.3v26.7h-15V48.9L62.5 33 87 48.9v37.3H72V59.6c0-.4-.4-1.3-1.1-1.3zM39.8 37.2v8.5l-3.6 2.1h-.1c-.2.1-.6.3-.6.7v37.7H12.9V13.8H58v19.6l-7.5 4.8v-1c.1-.1.1-.2.1-.3l-.1-.5H50c-.1 0-.2 0-.3.1h-8.9v-.1h-.6l-.4-.1v.9zm8.6 1v1.3L42 44.2v-6h6.4z"/></svg>