<?xml version="1.0" encoding="utf-8"?><svg xmlns="http://www.w3.org/2000/svg" width="32" height="8.45" viewBox="0 0 336.9 89"><path fill="none" d="M305 60.8h13.5l-6.8-45-6.7 45M126.6 76.3h7.9c4.4 0 7.1-2.3 7.1-8.6V21.4c0-6.4-2.7-8.6-7.1-8.6h-7.9zM13.9 42.8h6.6c4.4 0 6.9-2 6.9-8.4V21.1c0-6.4-2.4-8.4-6.9-8.4h-6.6z"/><path d="M20.5 12.7h19.6C37.5 4.4 31.1 0 20.5 0h-6.6v12.7z" fill="#252a4a"/><path d="M41.4 22a32.6 32.6 0 0 0-1.3-9.3H20.6c4.4 0 6.9 2 6.9 8.4v13.4c0 6.4-2.4 8.4-6.9 8.4H14v12.7h6.6c14 0 20.8-7.7 20.8-22z" fill="#e84443"/><path fill="#5c3249" d="M0 55.6h14V89H0z"/><path fill="#a73448" d="M0 0v55.6h14V42.8l-.1-30.1L14 0H0"/><path fill="#e84443" d="M68.5 21.1h14v21.7h-14zm0-21.1h14v12.9h-14z"/><path fill="#252a4a" d="M68.5 42.8h14v21.4h-14z"/><path fill="#a73448" d="M68.5 64.2h14V89h-14z"/><path d="M134.5 76.3h-21.9V89h22.1c10.5 0 17-4.4 19.6-12.7z" fill="#e84443"/><path fill="#a73448" d="M112.6 0v76.3h14V0h-14"/><path d="M154.3 12.7c-2.6-8.3-9-12.7-19.6-12.7h-8.1v12.7h7.9c4.4 0 7.1 2.3 7.1 8.6v46.2c0 6.4-2.7 8.8-7.1 8.8h19.8a34.3 34.3 0 0 0 1.2-9.5v-45a29.1 29.1 0 0 0-1.2-9.1z" fill="#5c3249"/><path fill="#252a4a" d="M184.5 21.1h14v17.2h-14z"/><path fill="#e84443" d="M184.5 38.3h14V89h-14z"/><path fill="#5c3249" d="M184.5 0h14v12.9h-14z"/><path fill="#a73448" d="M242.6 76.3h-14V89h37V76.3h-23"/><path fill="#252a4a" d="M228.6 0h14v15.8h-14z"/><path fill="#5c3249" d="M228.6 15.8h14v60.5h-14z"/><path fill="#252a4a" d="M334.3 72.8h-13.9l2.4 16.2h14.1l-2.6-16.2"/><path fill="#e84443" d="M311.7 15.8V0h-9.5l-9.7 60.8H305l6.7-45"/><path fill="#5c3249" d="M332.4 60.8h-39.9l-2 12h43.8l-1.9-12"/><path fill="#e84443" d="M288 89h12.8l2.4-16.2h-12.7L288 89"/><path fill="#a73448" d="M318.5 60.8h13.9L322.6 0h-10.9v15.8l6.8 45"/></svg>