<?xml version="1.0" encoding="utf-8"?><svg xmlns="http://www.w3.org/2000/svg" width="32" height="32" viewBox="0 0 400 400"><path d="M79.3 375.4a42.8 42.8 0 0 1-42.8-42.8 42.8 42.8 0 0 1 42.8-42.8 42.8 42.8 0 0 1 42.8 42.8 42.7 42.7 0 0 1-42.8 42.8zm0-106a42.8 42.8 0 0 1-42.8-42.8 42.8 42.8 0 0 1 42.8-42.8 42.8 42.8 0 0 1 42.8 42.8 42.7 42.7 0 0 1-42.8 42.8zm0-106.1a42.8 42.8 0 0 1-42.8-42.8 42.8 42.8 0 0 1 42.8-42.8 42.8 42.8 0 0 1 42.8 42.8 42.7 42.7 0 0 1-42.8 42.8zm106.2 212.1a42.8 42.8 0 0 1-42.8-42.8 42.8 42.8 0 0 1 42.8-42.8 42.8 42.8 0 0 1 42.8 42.8 42.8 42.8 0 0 1-42.8 42.8zm0-106a42.8 42.8 0 0 1-42.8-42.8 42.8 42.8 0 0 1 42.8-42.8 42.8 42.8 0 0 1 42.8 42.8 42.8 42.8 0 0 1-42.8 42.8zm0-106.1a42.8 42.8 0 0 1-42.8-42.8 42.8 42.8 0 0 1 42.8-42.8 42.8 42.8 0 0 1 42.8 42.8 42.8 42.8 0 0 1-42.8 42.8zm105.9 212.1a42.8 42.8 0 0 1-42.8-42.8 42.8 42.8 0 0 1 42.8-42.8 42.8 42.8 0 0 1 42.8 42.8 42.8 42.8 0 0 1-42.8 42.8zm0-106a42.8 42.8 0 0 1-42.8-42.8 42.8 42.8 0 0 1 42.8-42.8 42.8 42.8 0 0 1 42.8 42.8 42.8 42.8 0 0 1-42.8 42.8zm41.2-147.3a42.8 42.8 0 0 1-42.8-42.8 42.8 42.8 0 0 1 42.8-42.8 42.8 42.8 0 0 1 42.8 42.8 42.7 42.7 0 0 1-42.8 42.8z" fill="#eec725"/><path d="M71.5 371.4a46.8 46.8 0 0 1-16.3-90.7l2.8 7.5a39.1 39.1 0 1 0 13.5-2.3v-8a46.7 46.7 0 1 1 0 93.5zm0-106a46.7 46.7 0 1 1 20.9-4.9l-3.6-7.2a38.8 38.8 0 1 0-17.3 4.1zm0-106A47 47 0 0 1 29 132.1l7.3-3.4a38.9 38.9 0 1 0-3.5-16.2h-8a46.8 46.8 0 1 1 46.7 46.8zm106.1 212a46.8 46.8 0 1 1 43.2-65l-7.4 3.1a38.8 38.8 0 1 0 3 15h8a46.9 46.9 0 0 1-46.8 46.9zm0-106a46.9 46.9 0 0 1-18.2-90l3.1 7.4a38.8 38.8 0 1 0 15-3v-8a46.8 46.8 0 0 1 .1 93.6zm0-106.1a46.9 46.9 0 0 1-46.8-46.8h8a39 39 0 1 0 2.4-13.3l-7.5-2.7a46.8 46.8 0 1 1 43.9 62.8zm105.8 212.1v-8a38.8 38.8 0 1 0-15-3l-3.1 7.4a47 47 0 1 1 18.1 3.6zm.2-106a46.9 46.9 0 0 1-46.8-46.8h8a38.9 38.9 0 1 0 4-17.1l-7.2-3.5a46.8 46.8 0 1 1 42 67.4zm41-147.1a46.8 46.8 0 0 1 0-93.6v8a38.6 38.6 0 1 0 17.9 4.3l3.7-7.1a46.9 46.9 0 0 1-21.6 88.4zm-86.677 34.194l38.608-38.608 5.657 5.657-38.608 38.608zm61.147-.004l24.394-24.396 5.657 5.657-24.395 24.395zm-60.861-60.883l24.508-24.423 5.647 5.666-24.508 24.423z"/></svg>