<?xml version="1.0" encoding="utf-8"?><svg xmlns="http://www.w3.org/2000/svg" width="32" height="28.04" viewBox="0 0 292.2 256"><path d="M212.5 143c4.4-5.3 4.8-17.5 4.8-17.5a3.3 3.3 0 0 1 3.3-3.3h31.3a3.3 3.3 0 0 0 3.3-3.3V114a3.3 3.3 0 0 1 3.3-3.3h5.2a3.3 3.3 0 0 0 3.3-3.3V101a3.3 3.3 0 0 1 3.3-3.3h6a3.3 3.3 0 0 0 3.3-3.3v-6a3.3 3.3 0 0 0-3.3-3.3h-182l-23.4 6a2.6 2.6 0 0 0-1.1.5l-14.3 9.9-.6.6-23.8 27.5a3.2 3.2 0 0 0-.8 1.6l-4.8 29.5a2.9 2.9 0 0 0 .2 1.8l12.7 32.6a3.1 3.1 0 0 0 1 1.3l24.4 20.5a3.3 3.3 0 0 0 4.6-.4l.3-.3a3.4 3.4 0 0 0 .4-3l-9-24.5a3.3 3.3 0 0 1-.1-2.1l5.8-19.5a3.3 3.3 0 0 1 1.2-1.7l14.4-10.9a3.3 3.3 0 0 1 1.3-.6l19.5-3.6h49.9l43.8.7c2.2 0 12.2-2.7 16.6-8z" fill="#e84545"/><path d="M65.9 218a3.6 3.6 0 0 1-2.3-.9l-24.3-20.4a3.3 3.3 0 0 1-1-1.4l-12.9-32.7a3.1 3.1 0 0 1-.2-1.9l4.8-29.5a3.5 3.5 0 0 1 .8-1.8l23.9-27.6.7-.6 14.3-9.9a2.9 2.9 0 0 1 1.2-.6l23.4-5.9h182.2a3.6 3.6 0 0 1 3.6 3.6v5.9a3.6 3.6 0 0 1-3.6 3.6h-6a3.1 3.1 0 0 0-3.1 3.1v6.3a3.6 3.6 0 0 1-3.6 3.6h-5.2a3.1 3.1 0 0 0-3.1 3.1v4.8a3.6 3.6 0 0 1-3.6 3.6h-31.3a3.1 3.1 0 0 0-3.1 3.1c0 .5-.4 12.4-4.8 17.7s-14.7 8.1-16.8 8.1l-43.8-.7h-49.8l-19.5 3.6a3 3 0 0 0-1.2.6l-14.4 10.8a3.1 3.1 0 0 0-1.1 1.5l-5.8 19.6a3 3 0 0 0 .1 2l9 24.5a3.7 3.7 0 0 1-.5 3.3l-.3.3a3.6 3.6 0 0 1-2.7 1.2zM276.5 85.3H94.3l-23.4 6.1-1 .5-14.3 9.9-.6.5-23.7 27.6a3 3 0 0 0-.7 1.5l-4.8 29.5a2.6 2.6 0 0 0 .2 1.6l12.7 32.6a2.9 2.9 0 0 0 .9 1.2L64 216.8a3 3 0 0 0 4.3-.3l.2-.3a3.1 3.1 0 0 0 .4-2.8l-9-24.5a3.6 3.6 0 0 1-.1-2.3l5.8-19.6a3.6 3.6 0 0 1 1.3-1.9l14.4-10.9a3.6 3.6 0 0 1 1.4-.7l19.5-3.6h49.9l43.8.7c1.8-.1 12-2.6 16.4-7.9s4.7-17.3 4.7-17.4a3.6 3.6 0 0 1 3.6-3.6h31.3a3.1 3.1 0 0 0 3.1-3.1v-4.8a3.6 3.6 0 0 1 3.6-3.6h5.2a3.1 3.1 0 0 0 3.1-3.1V101a3.6 3.6 0 0 1 3.6-3.6h6a3.1 3.1 0 0 0 3.1-3.1v-5.9a3.1 3.1 0 0 0-3-3.1z" fill="#e84545"/><path d="M156.1 133.5v-53h119.8v-8.1h-37.7l.7-.6a28.7 28.7 0 0 0 8.1-20.9c-.5-15.4-13.9-27.9-29.9-27.9H179a2.1 2.1 0 0 1-2.1-2.1 2.2 2.2 0 0 1 2.1-2.1h10.3v-8.2H179a10.3 10.3 0 0 0 0 20.5h38.1c11.6 0 21.4 9 21.7 20a20.7 20.7 0 0 1-5.8 15 20.5 20.5 0 0 1-14.8 6.3H88.3a77.6 77.6 0 0 0-55 23.2A72.6 72.6 0 0 0 12 148.2a73.9 73.9 0 0 0 70.4 72.3h.3a28.8 28.8 0 0 0 28.5 24.7h32.9v-4.1a28.8 28.8 0 0 0-14.1-24.7 28.7 28.7 0 0 0 14.1-24.7v-4.1h-32.8a28.8 28.8 0 0 0-28.5 24.6 33.1 33.1 0 0 1-29.6-35.1c1.1-17.3 16.2-30.9 34.3-30.9h97.7a24.7 24.7 0 0 0 24.7-24.7h-8.1a16.5 16.5 0 0 1-16.5 16.6h-65.9v-32.2h8.1v-8.1h-8.1V80.5H148v29.7h-12.4v8.1H148v15.1zm-20.4 103.8h-24.4a20.7 20.7 0 0 1-19-12.5l12.8 7.7 4.2-7-8.1-4.8h14.2a20.8 20.8 0 0 1 20.3 16.6zm-24.4-41.4h24.4a20.7 20.7 0 0 1-20.3 16.6h-14.2l8.1-4.8-4.2-7-12.8 7.7a20.6 20.6 0 0 1 19-12.5zm-91.1-47.8a64.4 64.4 0 0 1 2.3-18.3l16.7 16.7-7.4 7.4 5.7 5.7 7.4-7.4 6.1 6.1a40 40 0 0 0-5.9 17.8h-18a64 64 0 0 1-6.9-27.9zM40 193.8a64.4 64.4 0 0 1-8.1-9.5h13.4a40.1 40.1 0 0 0 7.5 19.3 65.4 65.4 0 0 1-12.8-9.8zm16.1-41.9l-11.5-11.6 5.4-5.4-5.7-5.7-5.4 5.4-13.3-13.2a66.7 66.7 0 0 1 13.6-20 70.3 70.3 0 0 1 19.9-14.3l2.3 8.5-6.8 6.7 5.7 5.7 3.5-3.5 9.6 36.1a42.3 42.3 0 0 0-17.3 11.2zm55.1-63.3H98.8v8.1h12.4v41.6H87.5a42.5 42.5 0 0 0-6.3.5l-2.4-9.1h3.3v-8.1h-5.4l-10-37.5a68.6 68.6 0 0 1 21.7-3.6h22.9v8.1z"/><path d="M180.9 94.1h8.7v8.1h-8.7zm56.4 24.3h9v-8.1h-49.1v8.1H218a24.9 24.9 0 0 1-2.4 49.7h-12.3a16.3 16.3 0 1 0-.2 32.6v-8.1a8.2 8.2 0 1 1 .2-16.4h12.4a33 33 0 0 0 21.7-57.7zm-19.6-33.5h54.6V93h-54.6zm-7.6 12.9h49.1v8.1h-49.1zM85.8 121.6h16.7v8.1H85.8z"/></svg>